<?xml version="1.0" encoding="UTF-8"?>
<svg id="Calque_2" data-name="Calque 2" xmlns="http://www.w3.org/2000/svg" viewBox="0 0 387.69 127.25">
  <defs>
    <style>
      .cls-1 {
        fill: none;
      }

      .cls-1, .cls-2 {
        stroke: #0055b3;
        stroke-miterlimit: 10;
      }

      .cls-3 {
        fill: #0055b3;
      }

      .cls-2 {
        fill: #fff;
      }

      .cls-4 {
        fill: #a91e41;
      }
    </style>
  </defs>
  <g id="Avant">
    <path class="cls-2" d="m16.66,109.29c43-16.67,86-33.33,129-50l-13.33-22.22c-1.87-3.12-5.55-4.68-9.09-3.83-9.63,2.32-19.66,4.52-30.08,6.55-16.22,3.17-31.76,5.62-46.5,7.5-2.57,6.98-5.88,9.51-8.5,10.5-3.61,1.36-6.04-.14-10,2-4.15,2.25-5.03,5.83-6.5,5.5-1.11-.25-2.17-2.64-2-12-4,1.67-8,3.33-12,5-3.13-2.26-4.01-2.9-7.14-5.17.38-4.94.76-9.89,1.14-14.83,3.5-2.03,9.33-5.02,17-7,7.32-1.89,13.63-2.16,17.48-2.12,1.9.02,3.29.11,3.52.12,12.79.76,72.68-25.84,92.5-28.5,18.97-2.55,46.69,10.74,86.5,75.5,4-1.33,8-2.67,12-4-.74-2.11-3.7-11.35,1-20,6.16-11.35,21.84-14.91,31.5-10.5,15.12,6.9,15.65,33.38,7.5,48.5-1.66,3.08-7.69,14.27-17,14-5.78-.16-9.97-4.66-11.5-6.5-2.17,1.83-4.33,3.67-6.5,5.5,15.35,10.73,28.07,12.79,36,13,8.85.23,14.36-1.78,38.5-8.5,13.64-3.8,24.68-6.72,31.5-8.5,5.23-2.96,13.01-7.08,21.5-10.5,3.06-1.23,5.92-2.26,6.29-2.39,5.21-1.86,9.73-3.19,13.21-4.11,1.11,1.35,4.19,5.43,4.5,11.5.37,7.3-3.53,12.32-4.5,13.5-4.17,1.17-8.33,2.33-12.5,3.5-2.53,3.21-4.89,4.18-6.5,4.5-4.47.9-7.33-2.33-13-1-.32.08-.13.04-3.66,1.34-4.75,1.74-8.4,3.01-8.84,3.16-5.93,2.03-10.79.28-20.5.5-4.42.1-4.24.48-18.5,2.5-8.28,1.17-15.04,1.99-19.5,2.5,0,0-22.17,3.74-48,2-27.06-1.82-36.13-8.76-53.32-11.69-8.91-1.52-15.71-1.24-18.68-1.31-16.31-.37-28.03,1.37-36.5,2.5-29.92,4.01-45.14,6.05-61,5-10.97-.72-26.69-3.21-45.5-11.5Z"/>
    <path class="cls-2" d="m261.16,68.79c-.29,2.8.07,4.97.5,6.5.67,2.37,1.7,3.9,1,5-.55.86-1.88,1.02-3,1"/>
    <circle class="cls-3" cx="250.91" cy="70.54" r="1.75"/>
    <g id="Calque_3" data-name="Calque 3">
      <path class="cls-4" d="m240.16,67.79c.26-2.32,1.07-3.9,2-5,3.61-4.23,12.71-4.08,22.5-2.5,3.94.64,6.07.69,9,3,1.39,1.09,1.37,4.2,2,5,.29-1.29,2.52-12.27-5-21-6.65-7.72-17.08-9.23-25-7-2.29.64-12.36,3.8-16,14-2.91,8.16.24,15.38,1,17,.81-.8,2.47-2.22,5-3,1.85-.57,3.46-.58,4.5-.5Z"/>
      <path class="cls-1" d="m364.16,88.79c12.75.52,15.69,2.39,16,4,.38,1.94-2.76,4.96-6,6-4.01,1.29-6.76-.89-9,1-1.6,1.35-.95,3.1-2,5-1.19,2.14-4.47,4.34-14,4"/>
      <path class="cls-1" d="m369.16,104.79c3.67-1,7.33-2,11-3"/>
    </g>
    <g id="Calque_2-2" data-name="Calque 2">
      <line class="cls-2" x1="2.16" y1="42.79" x2="18.16" y2="35.79"/>
      <line class="cls-2" x1="2.16" y1="47.76" x2="20.16" y2="40.79"/>
      <line class="cls-2" x1="5.16" y1="53.79" x2="22.16" y2="45.79"/>
      <line class="cls-2" x1="20.02" y1="53.94" x2="27.3" y2="50.03"/>
      <line class="cls-2" x1="141.47" y1="52.79" x2="155.16" y2="74.79"/>
    </g>
    <path class="cls-1" d="m251.42,85.03c.3.82,1.27,3.09,3.69,4.51,1.06.62,2.08.89,2.82,1.01"/>
    <rect class="cls-3" x="246.66" y="63.29" width="9" height="4" rx="2" ry="2" transform="translate(5.03 -16.94) rotate(3.9)"/>
    <circle class="cls-3" cx="269.11" cy="71.87" r="1.75"/>
    <rect class="cls-3" x="264.46" y="64.5" width="9" height="4" rx="2" ry="2" transform="translate(5.15 -18.15) rotate(3.9)"/>
    <path class="cls-1" d="m236.16,80.79c-.15,2.05-.28,7.46,3,13,1.07,1.81,2.38,3.37,3.76,4.71"/>
    <path class="cls-4" d="m56.66,94.29l21,27c-8.92.35-20.65-.08-34-3-10.83-2.37-19.91-5.77-27-9,13.33-5,26.67-10,40-15Z"/>
  </g>
</svg>