<?xml version="1.0" encoding="UTF-8"?>
<svg id="Calque_2" data-name="Calque 2" xmlns="http://www.w3.org/2000/svg" viewBox="0 0 391.21 127.25">
  <defs>
    <style>
      .cls-1 {
        fill: none;
      }

      .cls-1, .cls-2 {
        stroke: #0055b3;
        stroke-miterlimit: 10;
      }

      .cls-2 {
        fill: #fff;
      }

      .cls-3 {
        fill: #a91e41;
      }
    </style>
  </defs>
  <g id="Arrière">
    <path class="cls-2" d="m220.65,76.29c4-1.33,8-2.67,12-4-.74-2.11-3.7-11.35,1-20,6.16-11.35,21.84-14.91,31.5-10.5,15.12,6.9,15.65,33.38,7.5,48.5-1.66,3.08-7.69,14.27-17,14-5.78-.16-9.97-4.66-11.5-6.5-2.17,1.83-4.33,3.67-6.5,5.5"/>
    <path class="cls-3" d="m274.65,85.29c1.58-3.31,3.72-8.88,4-16,.15-3.83.55-13.75-6-22-.85-1.07-2.03-2.53-4-4-8.71-6.48-19.88-3.33-21-3-2.33.69-11.87,3.91-16,14-4.56,11.12,1.38,21,2,22l12.2,2.68c9.6,2.11,19.2,4.21,28.8,6.32Z"/>
    <path class="cls-3" d="m232.65,71.29c.81-.8,2.47-2.22,5-3,1.85-.57,3.46-.58,4.5-.5.26-2.32,1.07-3.9,2-5,3.61-4.23,12.71-4.08,22.5-2.5,3.94.64,6.07.69,9,3,1.39,1.09,1.37,4.2,2,5"/>
    <path class="cls-2" d="m147.65,59.29l-13.33-22.22c-1.87-3.12-5.55-4.68-9.09-3.83-9.63,2.32-19.66,4.52-30.08,6.55-16.22,3.17-31.76,5.62-46.5,7.5l-2.61-1.32c-5.91,1.07-14.62,2.4-23.76,2.84-3.29.16-6.33.18-6.72.18-5.53.04-10.24-.2-13.83-.47-.61-1.64-2.17-6.51-.46-12.34,2.05-7.01,7.38-10.47,8.69-11.27,4.32.27,8.64.54,12.96.81,3.45-2.2,6-2.33,7.62-2.11,4.52.62,5.82,4.57,11.61,5.17l1.13.47C58.87,28.09,115.07,3.35,134.15.79c18.97-2.55,46.69,10.74,86.5,75.5"/>
    <g>
      <path class="cls-1" d="m21.35,48.48c-11.86-4.69-14.03-7.42-13.79-9.04.28-1.95,4.24-3.77,7.64-3.69,4.21.1,6.09,3.07,8.83,2.02,1.95-.75,1.91-2.62,3.53-4.06,1.83-1.63,5.65-2.62,14.54.83"/>
      <path class="cls-1" d="m21.89,31.72c-3.79-.26-7.58-.53-11.37-.79"/>
    </g>
    <g>
      <path class="cls-2" d="m344.15,98.79c1.38-7.31,4.89-11.13,7.31-12.54,3.33-1.94,5.98-.87,9.53-3.63,3.72-2.9,4-6.58,5.5-6.5,1.13.06,2.58,2.25,3.96,11.5,3.67-2.31,7.34-4.61,11-6.92,3.46,1.71,4.44,2.2,7.9,3.91.45,4.94.89,9.88,1.34,14.82-3.12,2.59-8.37,6.5-15.6,9.72-6.91,3.08-13.08,4.39-16.89,4.99-1.88.3-4.82.63-5.05.65l-.5-.5c-.32.08-.13.04-3.66,1.34-4.75,1.74-8.4,3.01-8.84,3.16-5.93,2.03-10.79.28-20.5.5-4.42.1-4.24.48-18.5,2.5-8.28,1.17-15.04,1.99-19.5,2.5,0,0-22.17,3.74-48,2-27.06-1.82-36.13-8.76-53.32-11.69-8.91-1.52-15.71-1.24-18.68-1.31-16.31-.37-28.03,1.37-36.5,2.5-29.92,4.01-45.14,6.05-61,5-10.97-.72-26.69-3.21-45.5-11.5,52.96-30.22,98.47-43.54,129-50,40.65-8.6,59.08-5.95,68.5,4.5,10.32,11.44,6.58,28.62,23,41,9.84,7.42,21.76,10.12,21.76,10.12,4.96,1.12,9.18,1.29,12.74,1.38,8.85.23,14.36-1.78,38.5-8.5,13.64-3.8,24.68-6.72,31.5-8.5l.5-.5Z"/>
      <line class="cls-2" x1="389.45" y1="95.07" x2="374.84" y2="104.63"/>
      <line class="cls-2" x1="388.63" y1="90.17" x2="372.03" y2="100.03"/>
      <line class="cls-2" x1="384.67" y1="84.72" x2="369.23" y2="95.43"/>
      <line class="cls-2" x1="369.99" y1="87.04" x2="363.46" y2="92.1"/>
    </g>
    <path class="cls-3" d="m55.65,90.29c8,10.33,16,20.67,24,31-8.92.35-20.65-.08-34-3-10.83-2.37-19.91-5.77-27-9,5.44-3.92,12.1-8.12,20-12,6.08-2.99,11.82-5.26,17-7Z"/>
  </g>
</svg>