<svg xmlns="http://www.w3.org/2000/svg" width="112" height="38.208">
  <path d="M75.606 29.631c-8.524.012-16.608-2.403-24.046-2.538-1.845-.034-5.393.119-7.258.429l-.962.34c12.897.337 30.297 9.366 43.425 3.003 2.314-1.122 6.04-4.052 6.901-5.932-1.951.674-3.012 1.834-7.906 3.313-3.15.953-6.701 1.38-10.154 1.385" fill="#00adef" fill-rule="evenodd" stroke-width=".1"/>
  <path d="M67.107 8.65c1.887-.285 3.385-.094 4.45.627.673-1.311 1.68-3.008 2.928-3.797 2.342-1.48 5.34-1.826 7.983-1.034 2.978.893 5.14 3.081 6.079 6.038.096.301.148.648.22.959.088.386.2.777.375 1.134.441.905 1.135 1.23 2.142 1.058.288-.049.567-.228.802-.393.349-.245.676-.509 1.04-.734 1.124-.695 2.226-.79 3.496-.444 1.856.508 2.857 1.73 3.1 3.61.086.668.07 1.331.04 2.001-.01.245-.06.923.021 1.143.305.83.835 1.13 1.691 1.26 1.898.287 3.748 1.098 5.008 2.585 1.213 1.432 1.642 3.211 1.485 5.059-.14 1.66-1.122 3.72-2.468 4.742-1.78 1.352-3.381 1.6-5.59 1.604l-12.928.02c-10.022.015-15 .785-24.938-1.405-4.537-1-8.904-2.245-13.574-3.052-2.53-.436-5.15-.708-7.775-.626-1.888.06-5.725.515-6.984 1.42 5.94-.242 9.29.617 15.03 2.224 10.528 2.947 18.162 5.442 28.073 5.492 1.534.008 3.069.004 4.603-.002 2.833-.012 5.67-.052 8.502-.052 2.39 0 4.779.126 7.171.12 2.672-.005 6.563-.118 8.974-1.342a10.576 10.576 0 0 0 3.712-3.17c3.061-4.152 3.005-9.85-.427-13.774-.36-.412-.706-.704-1.1-1.073a9.426 9.426 0 0 0-2.646-1.763c-.305-.137-.616-.255-.922-.389-.233-.101-.689-.006-.838-.22-.217-.308-.106-1.012-.171-1.379-.094-.53-.186-1.045-.343-1.563-.494-1.633-1.476-2.88-2.815-3.922-1.306-1.015-2.678-1.64-4.344-1.694-.924-.03-3.505.079-4.138.716-.077-1.706-3.326-5.283-4.776-6.263-4.767-3.22-11.466-3.264-15.94.508-1.622 1.369-3.593 3.612-4.208 5.77M3.61 23.857a5.665 5.665 0 0 1-1.861-.325A5.943 5.943 0 0 1 0 22.57l.87-1.324c.462.344.932.605 1.41.782.479.177.938.266 1.379.266.418 0 .744-.083.975-.25a.783.783 0 0 0 .346-.666v-.032a.62.62 0 0 0-.153-.42 1.284 1.284 0 0 0-.419-.306 4.89 4.89 0 0 0-.612-.239c-.231-.075-.47-.15-.718-.225a11.249 11.249 0 0 1-.942-.307 3.416 3.416 0 0 1-.855-.459 2.253 2.253 0 0 1-.62-.698c-.161-.28-.242-.623-.242-1.029v-.032c0-.398.078-.758.234-1.078.156-.322.37-.596.644-.822.274-.222.597-.394.967-.512.371-.119.766-.178 1.185-.178.537 0 1.08.086 1.628.26a5.86 5.86 0 0 1 1.499.718l-.774 1.391a6.517 6.517 0 0 0-1.24-.588 3.573 3.573 0 0 0-1.161-.218c-.376 0-.67.081-.879.242a.738.738 0 0 0-.314.61v.032c0 .15.054.282.161.395.108.113.25.215.427.306.178.092.382.178.613.256.23.08.47.158.717.233.312.097.623.21.935.339.311.129.593.287.846.475.252.186.46.414.62.682.162.269.242.597.242.981v.032c0 .451-.08.844-.242 1.174a2.3 2.3 0 0 1-.668.83c-.285.218-.62.384-1.008.497-.386.113-.8.17-1.24.17M8.042 15.186h2l1.707 5.835 1.886-5.867h1.66l1.902 5.867 1.74-5.835h1.95L18.1 23.761h-1.741l-1.902-5.819-1.918 5.819H10.8l-2.757-8.575M22.742 15.186h1.966v8.51h-1.966zm-.081-3.159h2.111v1.854h-2.111v-1.854M27.238 15.186h1.967v1.303c.14-.196.29-.379.448-.553.161-.172.347-.33.556-.47.21-.143.444-.253.707-.336.263-.08.553-.121.875-.121.61 0 1.129.137 1.55.413.425.277.747.645.973 1.1a4.233 4.233 0 0 1 1.22-1.1c.47-.276 1.025-.413 1.673-.413.937 0 1.67.282 2.197.846.53.564.792 1.367.792 2.41v5.431H38.23v-4.824c0-.675-.15-1.19-.448-1.542-.301-.355-.723-.532-1.268-.532-.535 0-.97.18-1.308.54-.336.357-.506.881-.506 1.566v4.792h-1.966v-4.84c0-.664-.15-1.175-.449-1.526-.3-.355-.722-.532-1.267-.532-.545 0-.983.188-1.316.564-.331.373-.497.895-.497 1.558v4.776h-1.967v-8.51" fill="#004374" fill-rule="evenodd" stroke-width=".1"/>
  <g style="-inkscape-font-specification:GothamMedium-Medium" aria-label="cloud" font-weight="500" font-size="49.713" font-family="GothamMedium" fill="#00adef">
    <path d="M49.963 22.294l-1.176-1.16c-.613.628-1.29 1.063-2.208 1.063-1.5 0-2.547-1.225-2.547-2.756 0-1.499 1.032-2.724 2.45-2.724.983 0 1.612.436 2.208 1.064l1.209-1.305c-.79-.87-1.79-1.467-3.4-1.467-2.547 0-4.417 2.03-4.417 4.464 0 2.434 1.87 4.416 4.4 4.416 1.66 0 2.643-.66 3.481-1.595zM53.815 23.696V11.931h-1.95v11.765zM64.968 19.441c0-2.45-1.918-4.432-4.529-4.432-2.61 0-4.545 2.015-4.545 4.464 0 2.434 1.918 4.416 4.513 4.416 2.627 0 4.561-2.014 4.561-4.448zm-1.95.032c0 1.5-1 2.724-2.579 2.724-1.515 0-2.595-1.24-2.595-2.756 0-1.499 1-2.724 2.563-2.724 1.531 0 2.611 1.241 2.611 2.756zM72.543 19.99c0 1.32-.79 2.11-1.918 2.11-1.16 0-1.82-.757-1.82-2.079v-4.835h-1.95v5.416c0 1.982 1.111 3.271 3.03 3.271 1.32 0 2.11-.693 2.658-1.499v1.322h1.95v-8.51h-1.95zM85.308 23.696V11.931h-1.95v4.577c-.612-.79-1.499-1.499-2.9-1.499-2.032 0-3.95 1.596-3.95 4.432 0 2.837 1.95 4.432 3.95 4.432 1.385 0 2.272-.709 2.9-1.595v1.418zm-1.918-4.255c0 1.66-1.16 2.74-2.465 2.74-1.322 0-2.45-1.064-2.45-2.74 0-1.708 1.112-2.74 2.45-2.74 1.305 0 2.465 1.08 2.465 2.74z"/>
  </g>
</svg>
